<svg width="1440" height="800" viewBox="0 0 1440 800" fill="none" xmlns="http://www.w3.org/2000/svg">
<g clip-path="url(#clip0_220_2637)">
<rect width="1440" height="800" fill="#06061C"/>
<g opacity="0.6">
<g opacity="0.16" filter="url(#filter0_f_220_2637)">
<path d="M2008 541.093C2008 775.81 920.08 1150 781.142 1150C642.204 1150 1338.37 775.81 1338.37 541.093C1338.37 306.376 575.982 0 714.92 0C853.857 0 2008 306.376 2008 541.093Z" fill="url(#paint0_linear_220_2637)"/>
<path d="M2007.5 541.093C2007.5 570.245 1990.6 601.645 1960.61 634.308C1930.63 666.96 1887.63 700.805 1835.57 734.838C1731.44 802.901 1591.14 871.666 1446.48 933.105C1301.82 994.542 1152.82 1048.65 1031.3 1087.39C970.542 1106.76 916.659 1122.29 873.628 1132.98C830.579 1143.67 798.44 1149.5 781.142 1149.5C776.824 1149.5 773.344 1149.14 770.642 1148.44C767.937 1147.73 766.052 1146.7 764.874 1145.4C762.571 1142.86 762.786 1139.01 765.636 1133.7C768.47 1128.42 773.813 1121.9 781.33 1114.27C788.839 1106.65 798.492 1097.93 809.918 1088.25C837.737 1064.67 876.012 1035.42 919.372 1002.28C947.275 980.958 977.283 958.024 1007.96 933.959C1086.31 872.513 1169.01 803.714 1232.14 735.596C1263.7 701.537 1290.38 667.635 1309.17 634.896C1327.95 602.16 1338.87 570.553 1338.87 541.093C1338.87 511.619 1326.91 481.063 1306.3 450.176C1285.69 419.287 1256.42 388.033 1221.75 357.153C1152.42 295.392 1061.43 235.071 974.806 182.101C931.493 155.615 889.267 130.963 851.38 108.885C849.863 108.002 848.354 107.122 846.852 106.247C810.817 85.2504 778.906 66.6568 753.985 51.1145C741.005 43.0195 729.928 35.7564 721.155 29.416C712.375 23.0698 705.933 17.6684 702.198 13.2982C700.329 11.11 699.172 9.21914 698.719 7.62963C698.273 6.06832 698.51 4.82855 699.399 3.83047C700.319 2.7963 701.998 1.95252 704.593 1.37407C707.175 0.798367 710.596 0.5 714.92 0.5C732.231 0.5 765.416 5.27683 810.275 14.1136C855.119 22.9473 911.591 35.8298 975.455 52.0234C1103.18 84.4106 1260.46 130.039 1413.4 183C1566.34 235.964 1714.92 296.254 1825.25 357.963C1880.42 388.818 1926 420.015 1957.79 450.813C1989.59 481.622 2007.5 511.958 2007.5 541.093Z" stroke="url(#paint1_linear_220_2637)"/>
</g>
</g>
</g>
<defs>
<filter id="filter0_f_220_2637" x="618" y="-80" width="1470" height="1310" filterUnits="userSpaceOnUse" color-interpolation-filters="sRGB">
<feFlood flood-opacity="0" result="BackgroundImageFix"/>
<feBlend mode="normal" in="SourceGraphic" in2="BackgroundImageFix" result="shape"/>
<feGaussianBlur stdDeviation="40" result="effect1_foregroundBlur_220_2637"/>
</filter>
<linearGradient id="paint0_linear_220_2637" x1="1242.64" y1="105.804" x2="1342.08" y2="1000.65" gradientUnits="userSpaceOnUse">
<stop stop-color="#EEBE77"/>
<stop offset="0.3125" stop-color="#FF8999"/>
<stop offset="0.651042" stop-color="#BE87D9"/>
<stop offset="1" stop-color="#EE779B"/>
</linearGradient>
<linearGradient id="paint1_linear_220_2637" x1="701.476" y1="-0.000164246" x2="2170.1" y2="879.252" gradientUnits="userSpaceOnUse">
<stop stop-color="#EEBE77"/>
<stop offset="0.328125" stop-color="#FF8999"/>
<stop offset="0.666667" stop-color="#BE87D9"/>
<stop offset="1" stop-color="#FF8999"/>
</linearGradient>
<clipPath id="clip0_220_2637">
<rect width="1440" height="800" fill="white"/>
</clipPath>
</defs>
</svg>
