<?xml version="1.0" standalone="no"?>
<!DOCTYPE svg PUBLIC "-//W3C//DTD SVG 1.1//EN" "http://www.w3.org/Graphics/SVG/1.1/DTD/svg11.dtd" >
<svg xmlns="http://www.w3.org/2000/svg">
<metadata>Generated by IcoMoon</metadata>
<defs>
<font id="icomoon" horiz-adv-x="1024">
<font-face units-per-em="1024" ascent="960" descent="-64" />
<missing-glyph horiz-adv-x="1024" />
<glyph unicode="&#x20;" horiz-adv-x="512" d="" />
<glyph unicode="&#xe900;" glyph-name="arrow" d="M810.667 490.667h-494.933l226.133 226.133c17.067 17.067 17.067 42.667 0 59.733s-42.667 17.067-59.733 0l-298.667-298.667c-4.267-4.267-8.533-8.533-8.533-12.8-4.267-8.533-4.267-21.333 0-34.133 4.267-4.267 4.267-8.533 8.533-12.8l298.667-298.667c8.533-8.533 21.333-12.8 29.867-12.8s21.333 4.267 29.867 12.8c17.067 17.067 17.067 42.667 0 59.733l-226.133 226.133h494.933c25.6 0 42.667 17.067 42.667 42.667s-17.067 42.667-42.667 42.667z" />
<glyph unicode="&#xe901;" glyph-name="caution" d="M512 921.6c-262.4 0-473.6-211.2-473.6-473.6s211.2-473.6 473.6-473.6c262.4 0 473.6 211.2 473.6 473.6s-211.2 473.6-473.6 473.6zM512 70.4c-211.2 0-377.6 172.8-377.6 377.6s166.4 377.6 377.6 377.6c211.2 0 377.6-172.8 377.6-377.6s-166.4-377.6-377.6-377.6zM512 492.8c-25.6 0-44.8-19.2-44.8-44.8v-172.8c0-25.6 19.2-51.2 51.2-51.2s51.2 19.2 51.2 51.2v172.8c-6.4 25.6-32 44.8-57.6 44.8zM512 665.6v0c-25.6 0-51.2-19.2-51.2-51.2s25.6-44.8 51.2-44.8 51.2 19.2 51.2 51.2-25.6 44.8-51.2 44.8z" />
<glyph unicode="&#xe902;" glyph-name="check" d="M512 960c-283.429 0-512-228.571-512-512s228.571-512 512-512 512 228.571 512 512-228.571 512-512 512zM773.486 585.143l-332.8-292.571c-7.314-5.486-14.629-9.143-23.771-9.143 0 0-1.829 0-1.829 0-9.143 0-18.286 5.486-25.6 12.8l-124.343 146.286c-12.8 14.629-10.971 38.4 3.657 51.2s38.4 10.971 51.2-3.657l98.743-117.029 305.371 268.8c14.629 12.8 38.4 10.971 51.2-3.657s12.8-40.229-1.829-53.029z" />
<glyph unicode="&#xe903;" glyph-name="compas" d="M512 928c-262.4 0-480-217.6-480-480s211.2-480 480-480c262.4 0 480 211.2 480 480 0 262.4-217.6 480-480 480zM512 64c-211.2 0-384 172.8-384 384s172.8 384 384 384c211.2 0 384-172.8 384-384s-172.8-384-384-384zM678.4 678.4l-275.2-96c-12.8-6.4-19.2-12.8-25.6-25.6l-89.6-268.8c-6.4-19.2 0-38.4 12.8-51.2 6.4-6.4 19.2-12.8 32-12.8 6.4 0 12.8 0 12.8 0l268.8 89.6c19.2 6.4 25.6 12.8 32 25.6l89.6 268.8c6.4 25.6 6.4 44.8-6.4 57.6s-32 19.2-51.2 12.8zM563.2 396.8l-153.6-51.2 51.2 160 160 51.2-57.6-160z" />
<glyph unicode="&#xe904;" glyph-name="cross" d="M571.733 448l226.133 226.133c17.067 17.067 17.067 42.667 0 59.733s-42.667 17.067-59.733 0l-226.133-226.133-226.133 226.133c-17.067 17.067-42.667 17.067-59.733 0s-17.067-42.667 0-59.733l226.133-226.133-226.133-226.133c-17.067-17.067-17.067-42.667 0-59.733 8.533-8.533 17.067-12.8 29.867-12.8s21.333 4.267 29.867 12.8l226.133 226.133 226.133-226.133c8.533-8.533 21.333-12.8 29.867-12.8s21.333 4.267 29.867 12.8c17.067 17.067 17.067 42.667 0 59.733l-226.133 226.133z" />
<glyph unicode="&#xe905;" glyph-name="discord" d="M646.656 788.287h-1.92l-12.928-12.8c132.672-38.4 196.864-98.368 196.864-98.368-85.504 42.752-162.56 64.128-239.616 72.768-55.68 8.64-111.36 4.096-158.4 0h-12.799c-30.080 0-94.080-12.8-179.84-47.040-29.888-12.992-47.040-21.504-47.040-21.504s64.128 64.128 205.44 98.368l-8.64 8.64c0 0-107.008 4.096-222.528-81.28 0 0-115.52-201.215-115.52-449.279 0 0 64-111.36 239.552-115.584 0 0 25.6 34.112 51.52 64.128-63.051 19.162-101.482 50.577-120.989 70.729-4.9 5.065-0.393 10.236 5.469 6.327h3.84c1.92 0 2.816-0.96 3.84-1.92v-0.384c1.024-1.024 1.92-1.92 3.84-1.92 21.12-8.704 42.24-17.28 59.52-25.6 29.824-12.928 68.16-25.792 115.2-34.304 59.519-8.64 127.743-12.8 205.439 0 38.4 8.64 76.8 17.088 115.2 34.24 21.175 10.859 33.139-5.564 12.177-16.823-17.745-9.532-38.916-18.586-63.889-25.865 21.12-29.824 50.88-64 50.88-64 175.616 3.84 243.84 115.2 247.68 110.464 0 247.68-116.16 449.279-116.16 449.279-104.64 77.696-202.56 80.64-219.84 80.64l3.584 1.28 0.064-0.192zM657.408 505.856c44.992 0 81.28-38.4 81.28-85.44 0-47.36-36.48-85.76-81.28-85.76s-81.28 38.4-81.28 85.376c0.128 47.36 36.672 85.632 81.28 85.632v0.192zM366.657 505.856c44.8 0 81.023-38.4 81.023-85.44 0-47.36-36.479-85.76-81.279-85.76s-81.28 38.4-81.28 85.376c0 47.36 36.48 85.632 81.28 85.632l0.256 0.192z" />
<glyph unicode="&#xe906;" glyph-name="down" d="M512 256c-19.2 0-32 6.4-44.8 19.2l-300.8 300.8c-25.6 25.6-25.6 64 0 89.6s64 25.6 89.6 0l256-256 256 256c25.6 25.6 64 25.6 89.6 0s25.6-64 0-89.6l-300.8-300.8c-12.8-12.8-25.6-19.2-44.8-19.2z" />
<glyph unicode="&#xe907;" d="M1024 448c0-282.77-229.23-512-512-512s-512 229.23-512 512c0 282.77 229.23 512 512 512s512-229.23 512-512z" />
<glyph unicode="&#xe908;" d="M790.4 601.6c0 41.6-35.2 73.6-73.6 73.6h-409.6c-41.6 0-73.6-35.2-73.6-76.8v-307.2c0-41.6 35.2-73.6 73.6-73.6h409.6c41.6 0 73.6 35.2 73.6 73.6v310.4c3.2 0 3.2 0 0 0zM745.6 294.4c0-16-12.8-25.6-25.6-25.6h-412.8c-16 0-25.6 12.8-25.6 25.6v262.4l217.6-153.6c9.6-6.4 19.2-6.4 28.8 0l217.6 153.6v-262.4z" />
<glyph unicode="&#xe909;" d="M777.923 448.725l-156.14 393.895-45.245-162.641 201.385-231.254z" />
<glyph unicode="&#xe90a;" d="M415.941 102.712l349.944 302.746-278.874-47.273-71.071-255.473z" />
<glyph unicode="&#xe90b;" d="M561.976 627.633l-74.96-269.448 278.875 47.278-203.914 222.17z" />
<glyph unicode="&#xe90c;" d="M415.95 102.712l-143.324 439.971 214.395-184.498-71.071-255.473z" />
<glyph unicode="&#xe90d;" d="M561.961 627.633l-74.961-269.448-214.395 184.502 289.356 84.946z" />
<glyph unicode="&#xe90e;" d="M284.641 585.95l337.127 256.67-45.245-162.641-291.881-94.029z" />
<glyph unicode="&#xe90f;" d="M272.607 542.687l12.035 43.261 291.88 94.029 201.39-231.254-12.037-43.26-203.914 222.17-289.354-84.946z" />
<glyph unicode="&#xe910;" glyph-name="facebook" d="M967.509 960h-911.019c-31.189 0-56.491-25.301-56.491-56.491v-911.019c0-31.232 25.301-56.491 56.491-56.491h490.411v396.544h-133.504v154.496h133.504v114.133c0 132.224 80.811 204.16 198.784 204.16 56.533 0 105.131-4.139 119.296-6.016v-138.24h-81.963c-64 0-76.459-30.763-76.459-75.563v-98.603h152.917l-19.84-154.88h-133.077v-396.032h260.907c31.275 0 56.533 25.259 56.533 56.491v911.019c0 31.189-25.259 56.491-56.491 56.491z" />
<glyph unicode="&#xe911;" d="M1024 448c0-282.77-229.23-512-512-512s-512 229.23-512 512c0 282.77 229.23 512 512 512s512-229.23 512-512z" />
<glyph unicode="&#xe912;" d="M739.754 704h-455.508c-15.595 0-28.245-12.651-28.245-28.245v-455.508c0-15.616 12.651-28.246 28.245-28.246h245.204v198.272h-66.752v77.248h66.752v57.066c0 66.112 40.406 102.080 99.392 102.080 28.269 0 52.566-2.067 59.648-3.008v-69.12h-40.979c-32 0-38.23-15.379-38.23-37.779v-49.302h76.458l-9.92-77.44h-66.538v-198.016h130.454c15.635 0 28.266 12.63 28.266 28.246v455.508c0 15.595-12.63 28.245-28.246 28.245z" />
<glyph unicode="&#xe913;" glyph-name="flag" d="M985.6 896c-12.8 6.4-32 6.4-44.8 0l-262.4-153.6-307.2 153.6c0 0 0 0 0 0-6.4 0-12.8 6.4-19.2 6.4 0 0 0 0 0 0s0 0-6.4 0-12.8-6.4-19.2-6.4c0 0 0 0 0 0l-281.6-166.4c-19.2-6.4-25.6-19.2-25.6-38.4v-652.8c0-19.2 6.4-32 25.6-38.4 12.8-6.4 32-6.4 44.8 0l262.4 153.6 300.8-153.6c0 0 0 0 0 0 6.4 0 12.8-6.4 19.2-6.4s12.8 0 19.2 6.4c0 0 0 0 0 0l288 160c12.8 6.4 25.6 25.6 25.6 38.4v659.2c0 12.8-6.4 25.6-19.2 38.4zM396.8 780.8l236.8-115.2v-550.4l-236.8 115.2v550.4zM108.8 665.6l192 108.8v-544l-192-108.8v544zM915.2 230.4l-192-108.8v544l192 108.8v-544z" />
<glyph unicode="&#xe914;" glyph-name="focus" d="M512 921.6c0 0 0 0 0 0s0 0 0 0c-262.4 0-473.6-211.2-473.6-473.6s211.2-473.6 473.6-473.6c262.4 0 473.6 211.2 473.6 473.6s-211.2 473.6-473.6 473.6zM563.2 70.4v121.6c0 25.6-19.2 51.2-51.2 51.2s-44.8-25.6-44.8-51.2v-121.6c-172.8 19.2-307.2 160-326.4 326.4h115.2c25.6 0 51.2 19.2 51.2 51.2s-25.6 44.8-51.2 44.8h-121.6c19.2 172.8 160 307.2 326.4 326.4v-115.2c0-25.6 19.2-51.2 51.2-51.2s51.2 25.6 51.2 51.2v121.6c172.8-19.2 307.2-160 326.4-326.4h-121.6c-25.6 0-51.2-19.2-51.2-51.2s19.2-51.2 51.2-51.2h121.6c-25.6-166.4-160-300.8-326.4-326.4z" />
<glyph unicode="&#xe915;" d="M1024 448c0-282.77-229.23-512-512-512s-512 229.23-512 512c0 282.77 229.23 512 512 512s512-229.23 512-512z" />
<glyph unicode="&#xe916;" d="M543.862 626.083c0 2.544 0 5.437 0 8.326 0 55.712 0.131 111.446-0.083 167.158-0.045 12.748 3.696 22.928 15.77 28.212 11.795 5.155 21.498 0.798 30.474-7.571 108.851-101.589 217.834-203.051 326.752-304.574 14.915-13.891 15.021-29.226 0.234-43.008-109.302-101.914-218.646-203.741-327.949-305.654-8.848-8.237-18.611-11.69-29.939-6.534-11.238 5.133-15.341 14.688-15.322 26.874 0.15 55.715 0.064 111.45 0.064 167.162 0 2.931 0 5.888 0 8.733-10.384 0-20.406 0.454-30.342-0.086-40.794-2.157-81.053-7.808-120.65-18.397-77.141-20.64-132.487-67.638-167.767-139.466-5.556-11.322-11.24-22.582-17.266-33.667-5.684-10.419-17.095-15.466-27.716-12.941-11.753 2.803-20.087 12.509-20.108 24.931-0.192 63.565 1.517 127.021 14.296 189.59 9.744 47.667 26.22 92.509 56.243 131.312 36.284 46.893 84.813 75.126 140.116 92.79 53.552 17.104 108.79 23.206 164.605 25.472 2.138 0.086 4.253 0.218 6.39 0.387 0.47 0.045 0.918 0.39 2.198 0.95zM595.043 747.107c0-4.81 0-7.636 0-10.483 0-45.208 0.064-90.417-0.045-135.626-0.042-16.672-10.49-27.046-26.966-27.478-18.378-0.474-36.797-0.624-55.133-1.725-49.085-2.976-97.485-9.878-143.875-27.392-55.475-20.944-98.276-56.294-123.62-111.318-15.663-34.013-23.399-70.163-27.886-107.155-1.453-12.035-2.436-24.134-3.654-36.192 2.479 0.259 3.077 1.123 3.697 1.942 41.605 54.87 97.742 86.643 162.638 104.717 60.624 16.89 122.614 21.632 185.142 22.086 19.507 0.15 29.638-10.010 29.658-29.613 0.022-44.672 0-89.341 0-134.010 0-2.739 0-5.456 0-9.92 90.797 84.637 179.994 167.741 269.421 251.104-89.878 83.795-178.88 166.749-269.376 251.062z" />
<glyph unicode="&#xe917;" d="M302.324 238.324c-14.629 17.067-31.695 53.638-60.952 97.524-17.067 24.381-58.514 70.705-70.705 95.086-9.752 21.943-9.752 29.257-7.314 46.324 4.876 31.695 36.571 53.638 68.267 51.2 24.381-2.438 46.324-19.505 65.829-34.133 12.19-9.752 26.819-26.819 34.133-39.010 7.314-9.752 9.752-14.629 19.505-24.381 12.19-14.629 14.629-21.943 9.752-4.876-2.438 24.381-9.752 65.829-17.067 102.4-7.314 26.819-7.314 31.695-14.629 53.638s-9.752 39.010-14.629 63.39c-4.876 17.067-12.19 51.2-14.629 70.705-2.438 26.819-4.876 70.705 12.19 90.21 12.19 14.629 43.886 19.505 63.39 9.752 24.381-12.19 39.010-48.762 46.324-63.39 12.19-26.819 19.505-56.076 24.381-95.086 7.314-51.2 21.943-119.467 24.381-134.095 0 17.067-2.438 56.076 0 73.143 2.438 14.629 17.067 34.133 31.695 39.010s29.257 4.876 43.886 2.438c14.629-2.438 31.695-14.629 36.571-24.381 17.067-29.257 17.067-92.648 19.505-90.21 4.876 19.505 2.438 60.952 14.629 78.019 7.314 12.19 24.381 21.943 34.133 24.381 14.629 2.438 31.695 2.438 46.324 0 12.19-2.438 29.257-17.067 34.133-24.381 9.752-17.067 17.067-63.39 19.505-80.457 0-7.314 2.438 19.505 14.629 36.571 19.505 31.695 90.21 36.571 92.648-31.695 0-31.695 0-29.257 0-51.2 0-24.381 0-41.448-2.438-58.514-2.438-19.505-4.876-63.39-12.19-85.333-4.876-14.629-17.067-48.762-31.695-68.267 0 0-51.2-60.952-58.514-87.771-4.876-26.819-4.876-26.819-4.876-46.324s4.876-43.886 4.876-43.886-39.010-4.876-60.952-2.438c-19.505 2.438-43.886 41.448-48.762 53.638-7.314 17.067-26.819 12.19-34.133 0-12.19-19.505-34.133-51.2-51.2-53.638-31.695-4.876-99.962-2.438-153.6 0 0 0 9.752 48.762-12.19 65.829-14.629 12.19-41.448 39.010-56.076 51.2l-34.133 39.010z" />
<glyph unicode="&#xe918;" d="M504.686 50.59c-19.505 0-39.010 0-58.514 0-12.19 0-24.381 0-36.571 0-7.314 0-14.629 2.438-19.505 9.752s-7.314 12.19-4.876 19.505c2.438 19.505 2.438 39.010-2.438 43.886-7.314 7.314-19.505 17.067-31.695 29.257-9.752 9.752-17.067 17.067-24.381 21.943l-2.438 2.438-41.448 43.886c-7.314 9.752-14.629 21.943-24.381 39.010s-21.943 36.571-36.571 58.514c-7.314 9.752-17.067 21.943-29.257 36.571-17.067 21.943-36.571 43.886-43.886 60.952-14.629 26.819-12.19 41.448-9.752 63.39 7.314 43.886 48.762 75.581 95.086 70.705 34.133-2.438 60.952-24.381 78.019-41.448 2.438-2.438 7.314-7.314 9.752-9.752-2.438 7.314-2.438 12.19-4.876 19.505-4.876 21.943-7.314 29.257-9.752 43.886v9.752c-4.876 14.629-7.314 26.819-9.752 41.448l-4.876 21.943c-2.438 12.19-12.19 51.2-14.629 75.581-4.876 51.2 0 87.771 19.505 109.714 19.505 24.381 63.39 31.695 92.648 17.067 31.695-14.629 46.324-51.2 56.076-70.705l2.438-4.876c12.19-26.819 19.505-56.076 26.819-102.4 0-4.876 2.438-9.752 2.438-14.629 7.314 4.876 14.629 9.752 21.943 12.19 19.505 4.876 39.010 7.314 56.076 2.438 21.943-4.876 43.886-19.505 53.638-36.571 12.19 12.19 29.257 21.943 41.448 21.943 19.505 2.438 39.010 2.438 56.076 0 19.505-4.876 41.448-21.943 48.762-34.133 4.876-7.314 7.314-14.629 9.752-26.819 19.505 12.19 43.886 17.067 65.829 12.19 31.695-7.314 51.2-36.571 53.638-75.581 0-26.819 0-31.695 0-43.886v-7.314c0-24.381 0-41.448-2.438-60.952 0-14.629-4.876-63.39-12.19-90.21-4.876-17.067-19.505-51.2-34.133-75.581 0 0 0-2.438-2.438-2.438-24.381-26.819-51.2-65.829-53.638-78.019-4.876-17.067-4.876-21.943-4.876-29.257 0-2.438 0-7.314 0-12.19 0-12.19 2.438-31.695 4.876-36.571 2.438-7.314 0-14.629-2.438-19.505-4.876-4.876-9.752-9.752-17.067-9.752-4.876 0-43.886-4.876-68.267-2.438-26.819 4.876-51.2 39.010-60.952 58.514-14.629-24.381-39.010-53.638-63.39-58.514-17.067-2.438-39.010-2.438-63.39-2.438zM436.419 99.352c4.876 0 7.314 0 12.19 0 41.448 0 87.771-2.438 112.152 2.438 4.876 2.438 19.505 19.505 34.133 41.448 7.314 14.629 21.943 24.381 39.010 21.943 14.629 0 29.257-9.752 36.571-24.381 9.752-17.067 24.381-36.571 31.695-39.010 7.314 0 17.067 0 26.819 0 0 7.314-2.438 17.067 0 24.381 0 4.876 0 7.314 0 12.19 0 9.752 0 17.067 4.876 39.010 7.314 29.257 48.762 80.457 63.39 97.524 12.19 17.067 24.381 46.324 26.819 58.514 4.876 17.067 9.752 53.638 9.752 80.457 2.438 19.505 2.438 34.133 2.438 56.076v9.752c0 12.19 0 17.067 0 41.448 0 17.067-7.314 26.819-17.067 29.257-12.19 2.438-26.819-2.438-31.695-9.752s-7.314-19.505-9.752-24.381-14.629-24.381-26.819-24.381-21.943 12.19-21.943 21.943c-4.876 36.571-9.752 63.39-14.629 70.705-2.438 4.876-12.19 12.19-17.067 12.19-9.752 2.438-24.381 2.438-39.010 0-4.876 0-14.629-7.314-17.067-12.19-4.876-7.314-4.876-29.257-7.314-41.448 0-9.752-2.438-19.505-4.876-29.257-2.438-12.19-12.19-19.505-26.819-19.505-9.752 0-21.943 7.314-21.943 26.819-2.438 36.571-7.314 60.952-14.629 73.143-2.438 2.438-12.19 9.752-21.943 12.19s-21.943 0-31.695-2.438c-7.314-2.438-14.629-12.19-14.629-19.505-2.438-7.314 0-24.381 0-39.010 0-12.19 0-24.381 0-31.695 0-12.19-12.19-21.943-24.381-21.943s-24.381 9.752-24.381 24.381c0 7.314-4.876 36.571-9.752 60.952s-9.752 48.762-12.19 70.705c-7.314 41.448-14.629 68.267-24.381 90.21l-2.438 4.876c-4.876 12.19-17.067 39.010-31.695 46.324-12.19 7.314-29.257 4.876-34.133-2.438s-12.19-29.257-7.314-70.705c2.438-17.067 9.752-51.2 12.19-68.267 2.438-7.314 4.876-14.629 4.876-21.943 2.438-12.19 4.876-24.381 9.752-39.010l2.438-9.752c4.876-14.629 7.314-21.943 12.19-46.324 7.314-34.133 12.19-73.143 17.067-97.524v-4.876c2.438-9.752 4.876-26.819-12.19-36.571-19.505-9.752-31.695 7.314-36.571 14.629l-4.876 7.314c-2.438 4.876-4.876 7.314-7.314 12.19s-4.876 7.314-9.752 12.19l-4.876 7.314c-7.314 9.752-19.505 21.943-26.819 29.257-19.505 14.629-34.133 26.819-53.638 29.257s-41.448-12.19-43.886-31.695c-2.438-14.629-2.438-19.505 4.876-31.695s24.381-34.133 39.010-53.638c14.629-14.629 24.381-26.819 31.695-39.010 17.067-24.381 29.257-46.324 39.010-63.39 7.314-14.629 14.629-24.381 19.505-31.695l39.010-43.886c7.314-7.314 17.067-14.629 24.381-24.381 9.752-9.752 21.943-19.505 29.257-26.819 19.505-12.19 24.381-39.010 24.381-58.514z" />
<glyph unicode="&#xe919;" d="M704.61 196.876c-14.629 0-24.381 9.752-24.381 24.381v168.229c0 14.629 9.752 24.381 24.381 24.381s24.381-9.752 24.381-24.381v-168.229c0-14.629-12.19-24.381-24.381-24.381z" />
<glyph unicode="&#xe91a;" d="M604.648 196.876c-12.19 0-24.381 9.752-24.381 24.381v168.229c0 14.629 9.752 24.381 24.381 24.381v0c12.19 0 24.381-9.752 24.381-24.381v-168.229c0-14.629-9.752-24.381-24.381-24.381v0z" />
<glyph unicode="&#xe91b;" d="M509.562 196.876c-12.19 0-24.381 9.752-24.381 24.381v168.229c0 14.629 9.752 24.381 24.381 24.381v0c12.19 0 24.381-9.752 24.381-24.381v-168.229c0-14.629-12.19-24.381-24.381-24.381v0z" />
<glyph unicode="&#xe91c;" glyph-name="home" d="M921.6 610.133l-384 298.667c-17.067 12.8-38.4 12.8-51.2 0l-384-298.667c-12.8-8.533-17.067-21.333-17.067-34.133v-469.333c0-34.133 12.8-68.267 38.4-89.6 21.333-25.6 55.467-38.4 89.6-38.4h597.333c34.133 0 68.267 12.8 89.6 38.4s38.4 55.467 38.4 89.6v469.333c0 12.8-4.267 25.6-17.067 34.133zM597.333 64h-170.667v341.333h170.667v-341.333zM853.333 106.667c0-12.8-4.267-21.333-12.8-29.867s-17.067-12.8-29.867-12.8h-128v384c0 25.6-17.067 42.667-42.667 42.667h-256c-25.6 0-42.667-17.067-42.667-42.667v-384h-128c-12.8 0-21.333 4.267-29.867 12.8s-12.8 17.067-12.8 29.867v448l341.333 264.533 341.333-264.533v-448z" />
<glyph unicode="&#xe91d;" glyph-name="info" d="M512 819.2c-204.8 0-375.467-166.4-375.467-375.467 0-204.8 166.4-375.467 375.467-375.467 204.8 0 375.467 166.4 375.467 375.467s-170.667 375.467-375.467 375.467zM512 136.533c-170.667 0-311.467 140.8-311.467 311.467 4.267 170.667 140.8 307.2 311.467 307.2s311.467-140.8 311.467-311.467c0-166.4-140.8-307.2-311.467-307.2zM512 477.867c-17.067 0-34.133-12.8-34.133-34.133v-128c0-17.067 12.8-34.133 34.133-34.133s34.133 12.8 34.133 34.133v128c0 21.333-17.067 34.133-34.133 34.133zM512 605.867v0c-17.067 0-34.133-12.8-34.133-34.133s12.8-34.133 34.133-34.133 34.133 12.8 34.133 34.133-17.067 34.133-34.133 34.133z" />
<glyph unicode="&#xe91e;" d="M1024 448c0-282.77-229.23-512-512-512s-512 229.23-512 512c0 282.77 229.23 512 512 512s512-229.23 512-512z" />
<glyph unicode="&#xe91f;" d="M533.333 746.667c-85.333 0-98.133 0-132.267 0s-55.467-8.533-76.8-12.8c-21.333-8.533-38.4-21.333-55.467-38.4-21.333-17.067-29.867-34.133-38.4-51.2-8.533-21.333-12.8-42.667-17.067-72.533 0-29.867 0-42.667 0-123.733s0-89.6 0-123.733c0-29.867 8.533-55.467 12.8-72.533 8.533-21.333 17.067-38.4 38.4-51.2 17.067-17.067 34.133-25.6 55.467-34.133s42.667-12.8 76.8-12.8c34.133 0 46.933 0 132.267 0s98.133 0 132.267 0c34.133 0 55.467 8.533 76.8 12.8 21.333 8.533 38.4 17.067 55.467 34.133s29.867 34.133 38.4 51.2c8.533 17.067 12.8 42.667 12.8 72.533s0 42.667 0 123.733 0 89.6 0 123.733-8.533 55.467-12.8 72.533c-8.533 21.333-17.067 38.4-38.4 51.2-17.067 17.067-34.133 25.6-55.467 34.133s-42.667 12.8-76.8 12.8c-29.867 4.267-42.667 4.267-128 4.267zM533.333 691.2c85.333 0 93.867 0 128 0 29.867 0 46.933-4.267 59.733-8.533 17.067-4.267 25.6-12.8 38.4-21.333s17.067-21.333 25.6-34.133c4.267-8.533 8.533-25.6 12.8-55.467 0-29.867 0-42.667 0-119.467s0-89.6 0-119.467c0-29.867-8.533-46.933-12.8-55.467-4.267-12.8-12.8-25.6-25.6-34.133s-21.333-17.067-38.4-21.333c-12.8-4.267-29.867-8.533-59.733-8.533-34.133 0-42.667 0-128 0s-93.867 0-128 0c-29.867 0-46.933 4.267-59.733 8.533-17.067 4.267-25.6 12.8-38.4 21.333s-17.067 21.333-25.6 34.133c-4.267 8.533-8.533 25.6-12.8 55.467 0 29.867 0 42.667 0 119.467 0 81.067 0 89.6 0 119.467s8.533 46.933 12.8 55.467c8.533 12.8 12.8 21.333 25.6 34.133 8.533 8.533 21.333 17.067 34.133 21.333s29.867 8.533 59.733 8.533c34.133 0 46.933 4.267 132.267 0v0 0zM533.333 601.6c-89.6 0-166.4-68.267-166.4-153.6s72.533-153.6 166.4-153.6c89.6 0 166.4 68.267 166.4 153.6s-76.8 153.6-166.4 153.6zM533.333 349.867c-59.733 0-106.667 42.667-106.667 98.133s46.933 98.133 106.667 98.133 106.667-42.667 106.667-98.133-46.933-98.133-106.667-98.133zM742.4 605.867c0-21.333-17.067-34.133-38.4-34.133s-38.4 17.067-38.4 34.133 17.067 34.133 38.4 34.133c21.333 4.267 38.4-12.8 38.4-34.133z" />
<glyph unicode="&#xe920;" glyph-name="instagram" d="M512 960c-139.093 0-156.459-0.64-211.072-3.072-54.528-2.56-91.648-11.136-124.288-23.808-33.664-13.056-62.251-30.592-90.709-59.051s-46.037-57.003-59.051-90.709c-12.672-32.64-21.291-69.76-23.808-124.288-2.56-54.613-3.072-71.979-3.072-211.072s0.64-156.459 3.072-211.072c2.56-54.485 11.136-91.648 23.808-124.288 13.056-33.621 30.592-62.251 59.051-90.709 28.459-28.416 57.003-46.037 90.709-59.051 32.683-12.629 69.803-21.291 124.288-23.808 54.613-2.56 71.979-3.072 211.072-3.072s156.459 0.64 211.072 3.072c54.485 2.56 91.648 11.179 124.288 23.808 33.621 13.056 62.251 30.635 90.709 59.051 28.416 28.459 46.037 56.96 59.051 90.709 12.629 32.64 21.291 69.803 23.808 124.288 2.56 54.613 3.072 71.979 3.072 211.072s-0.64 156.459-3.072 211.072c-2.56 54.485-11.179 91.691-23.808 124.288-13.056 33.664-30.635 62.251-59.051 90.709-28.459 28.459-56.96 46.037-90.709 59.051-32.64 12.672-69.803 21.291-124.288 23.808-54.613 2.56-71.979 3.072-211.072 3.072zM512 867.84c136.661 0 152.96-0.683 206.933-3.029 49.92-2.347 77.013-10.624 95.019-17.707 23.979-9.259 40.96-20.352 58.965-38.229 17.877-17.92 28.971-34.944 38.229-58.923 6.997-18.005 15.36-45.099 17.621-95.019 2.432-54.016 2.987-70.229 2.987-206.933s-0.64-152.96-3.157-206.933c-2.603-49.92-10.923-77.013-17.963-95.019-9.557-23.979-20.437-40.96-38.357-58.965-17.877-17.877-35.157-28.971-58.88-38.229-17.92-6.997-45.44-15.36-95.36-17.621-54.357-2.432-70.357-2.987-207.317-2.987-137.003 0-153.003 0.64-207.317 3.157-49.963 2.603-77.483 10.923-95.403 17.963-24.277 9.557-40.96 20.437-58.837 38.357-17.963 17.877-29.44 35.157-38.4 58.88-7.040 17.92-15.317 45.44-17.92 95.36-1.92 53.76-2.603 70.357-2.603 206.677 0 136.363 0.683 153.003 2.603 207.403 2.603 49.92 10.88 77.397 17.92 95.317 8.96 24.32 20.437 40.96 38.4 58.923 17.877 17.877 34.56 29.397 58.837 38.315 17.92 7.083 44.843 15.403 94.763 17.963 54.4 1.92 70.4 2.56 207.317 2.56l1.92-1.28zM512 710.912c-145.28 0-262.912-117.76-262.912-262.912 0-145.28 117.76-262.912 262.912-262.912 145.28 0 262.912 117.76 262.912 262.912 0 145.28-117.76 262.912-262.912 262.912zM512 277.333c-94.293 0-170.667 76.373-170.667 170.667s76.373 170.667 170.667 170.667c94.293 0 170.667-76.373 170.667-170.667s-76.373-170.667-170.667-170.667zM846.763 721.28c0-33.92-27.563-61.44-61.44-61.44-33.92 0-61.44 27.563-61.44 61.44s27.563 61.397 61.44 61.397c33.835 0.043 61.44-27.52 61.44-61.397z" />
<glyph unicode="&#xe921;" glyph-name="key" d="M972.8 697.6l-96 96 51.2 51.2c6.4 6.4 12.8 19.2 12.8 32s-6.4 25.6-12.8 32c-19.2 19.2-51.2 19.2-70.4 0l-377.6-377.6c-44.8 32-102.4 44.8-160 44.8-76.8 0-147.2-25.6-198.4-83.2-51.2-51.2-83.2-121.6-83.2-198.4s25.6-147.2 76.8-198.4c25.6-25.6 57.6-44.8 89.6-64 32-12.8 70.4-19.2 108.8-19.2s70.4 6.4 108.8 19.2c32 12.8 64 32 89.6 64 25.6 25.6 44.8 57.6 64 89.6 12.8 32 19.2 70.4 19.2 108.8s-6.4 76.8-19.2 108.8c0 25.6-12.8 44.8-25.6 57.6l108.8 108.8 96-96c19.2-19.2 51.2-19.2 70.4 0l147.2 147.2c19.2 25.6 19.2 57.6 0 76.8zM492.8 224c-6.4-25.6-25.6-44.8-38.4-64-19.2-19.2-38.4-32-64-38.4s-44.8-12.8-70.4-12.8c-25.6 0-51.2 6.4-70.4 12.8-25.6 12.8-44.8 25.6-57.6 38.4-32 38.4-51.2 83.2-51.2 134.4s19.2 96 57.6 128 83.2 51.2 128 57.6c0 0 0 0 0 0 51.2 0 96-19.2 128-51.2 19.2-19.2 32-38.4 38.4-57.6 6.4-25.6 12.8-44.8 12.8-70.4s0-51.2-12.8-76.8zM787.2 582.4l-57.6 57.6 83.2 83.2 57.6-57.6-83.2-83.2z" />
<glyph unicode="&#xe922;" glyph-name="left-arrow" d="M422.4 448l271.36 271.36c15.36 15.36 15.36 38.4 0 53.76s-38.4 15.36-53.76 0l-299.52-296.96c-15.36-15.36-15.36-38.4 0-53.76l299.52-299.52c7.68-7.68 17.92-10.24 28.16-10.24s20.48 2.56 28.16 10.24c15.36 15.36 15.36 38.4 0 53.76l-273.92 271.36z" />
<glyph unicode="&#xe923;" glyph-name="linkedin" d="M872.405 87.381h-151.637v237.611c0 56.661-1.152 129.579-79.019 129.579-79.061 0-91.136-61.653-91.136-125.397v-241.792h-151.637v488.619h145.664v-66.603h1.963c20.352 38.4 69.845 78.933 143.787 78.933 153.643 0 182.059-101.12 182.059-232.747v-268.203h-0.043zM227.712 642.859c-48.811 0-88.021 39.509-88.021 88.107 0 48.555 39.253 88.021 88.021 88.021 48.64 0 88.064-39.467 88.064-88.021 0-48.597-39.467-88.107-88.064-88.107zM303.744 87.381h-152.064v488.619h152.064v-488.619zM948.267 960h-872.704c-41.771 0-75.563-33.024-75.563-73.771v-876.459c0-40.789 33.792-73.771 75.563-73.771h872.576c41.728 0 75.861 32.981 75.861 73.771v876.459c0 40.747-34.133 73.771-75.861 73.771h0.128z" />
<glyph unicode="&#xe924;" d="M1024 448c0-282.77-229.23-512-512-512s-512 229.23-512 512c0 282.77 229.23 512 512 512s512-229.23 512-512z" />
<glyph unicode="&#xe925;" d="M729.6 268.8h-81.067v119.467c0 29.867 0 64-42.667 64s-51.2-29.867-51.2-64v-119.467h-81.067v243.2h76.8v-34.133c12.8 21.333 38.4 38.4 76.8 38.4 85.333 0 98.133-51.2 98.133-115.2l4.267-132.267zM379.733 546.133c-25.6 0-46.933 21.333-46.933 42.667 0 25.6 21.333 42.667 46.933 42.667s46.933-21.333 46.933-42.667c0-25.6-21.333-42.667-46.933-42.667zM422.4 268.8h-85.333v243.2h81.067v-243.2zM768 704h-469.333c-25.6 0-42.667-17.067-42.667-38.4v-439.467c0-17.067 17.067-34.133 42.667-34.133h469.333c21.333 0 42.667 17.067 42.667 38.4v435.2c0 21.333-17.067 38.4-42.667 38.4v0z" />
<glyph unicode="&#xe926;" glyph-name="location" d="M806.4 825.6c-76.8 76.8-185.6 121.6-294.4 121.6s-217.6-44.8-294.4-121.6c-76.8-76.8-121.6-185.6-121.6-294.4 0-307.2 377.6-563.2 390.4-569.6 6.4-6.4 19.2-6.4 25.6-6.4s19.2 0 25.6 6.4c12.8 12.8 390.4 262.4 390.4 569.6 0 108.8-44.8 217.6-121.6 294.4zM512 51.2c-83.2 57.6-326.4 262.4-326.4 480 0 89.6 32 166.4 96 230.4s140.8 96 230.4 96c89.6 0 166.4-32 230.4-96s96-140.8 96-230.4c0-217.6-243.2-416-326.4-480zM512 697.6c-96 0-166.4-76.8-166.4-166.4s70.4-172.8 166.4-172.8 166.4 76.8 166.4 166.4-70.4 172.8-166.4 172.8zM512 454.4c-44.8 0-76.8 32-76.8 76.8s32 76.8 76.8 76.8 76.8-32 76.8-76.8-32-76.8-76.8-76.8z" />
<glyph unicode="&#xe927;" glyph-name="logout" d="M853.333 490.667c-25.6 0-42.667-17.067-42.667-42.667v-341.333c0-12.8-4.267-21.333-12.8-29.867s-17.067-12.8-29.867-12.8h-512c-12.8 0-21.333 4.267-29.867 12.8s-12.8 17.067-12.8 29.867v341.333c0 25.6-17.067 42.667-42.667 42.667s-42.667-17.067-42.667-42.667v-341.333c0-34.133 12.8-68.267 38.4-89.6 21.333-25.6 55.467-38.4 89.6-38.4h512c34.133 0 68.267 12.8 89.6 38.4s38.4 55.467 38.4 89.6v341.333c0 25.6-17.067 42.667-42.667 42.667zM371.2 674.133l98.133 98.133v-452.267c0-25.6 17.067-42.667 42.667-42.667s42.667 17.067 42.667 42.667v452.267l98.133-98.133c8.533-8.533 17.067-12.8 29.867-12.8s21.333 4.267 29.867 12.8c17.067 17.067 17.067 42.667 0 59.733l-170.667 170.667c-4.267 4.267-8.533 8.533-12.8 8.533-8.533 4.267-21.333 4.267-34.133 0-4.267-4.267-8.533-4.267-12.8-8.533l-170.667-170.667c-17.067-17.067-17.067-42.667 0-59.733s42.667-17.067 59.733 0z" />
<glyph unicode="&#xe928;" d="M1024 448c0-282.77-229.23-512-512-512s-512 229.23-512 512c0 282.77 229.23 512 512 512s512-229.23 512-512z" />
<glyph unicode="&#xe929;" d="M512 746.667c-187.733 0-341.333-132.267-341.333-294.4 0-93.867 51.2-174.933 128-230.4v-115.2l115.2 59.733c29.867-8.533 64-12.8 98.133-12.8 187.733 0 341.333 132.267 341.333 294.4 0 166.4-153.6 298.667-341.333 298.667zM546.133 345.6l-85.333 85.333-170.667-85.333 187.733 187.733 89.6-85.333 166.4 85.333-187.733-187.733z" />
<glyph unicode="&#xe92a;" glyph-name="messenger" d="M512 960c-282.752 0-512-212.224-512-474.069 0-149.248 74.411-282.197 190.677-369.237v-180.693l174.421 95.659c46.592-12.8 95.829-19.797 146.901-19.797 282.752 0 512 212.267 512 474.027s-229.248 474.112-512 474.112zM562.816 321.579l-130.347 139.093-254.421-139.093 279.851 297.088 133.589-139.051 251.264 139.051-279.936-297.088z" />
<glyph unicode="&#xe92b;" glyph-name="minus" d="M682.667 482.133h-341.333c-21.333 0-34.133-17.067-34.133-34.133s17.067-34.133 34.133-34.133h341.333c21.333 0 34.133 17.067 34.133 34.133s-12.8 34.133-34.133 34.133z" />
<glyph unicode="&#xe92c;" glyph-name="navi" d="M972.8 908.8c-12.8 12.8-38.4 19.2-57.6 6.4l-812.8-384c-12.8-6.4-25.6-25.6-19.2-44.8 0-19.2 19.2-38.4 38.4-44.8l313.6-76.8 76.8-313.6c6.4-19.2 19.2-32 44.8-38.4 0 0 0 0 6.4 0 19.2 0 38.4 12.8 44.8 25.6l384 812.8c0 19.2-6.4 44.8-19.2 57.6zM569.6 204.8l-51.2 211.2c-6.4 19.2-19.2 32-38.4 38.4l-211.2 51.2 569.6 268.8-268.8-569.6z" />
<glyph unicode="&#xe92d;" glyph-name="NFT-cross" d="M512 917.333c-260.267 0-469.333-209.067-469.333-469.333s209.067-469.333 469.333-469.333 469.333 209.067 469.333 469.333-209.067 469.333-469.333 469.333zM512 64c-213.333 0-384 170.667-384 384s170.667 384 384 384c213.333 0 384-170.667 384-384s-170.667-384-384-384zM712.533 648.533c-17.067 17.067-42.667 17.067-59.733 0l-140.8-140.8-140.8 140.8c-17.067 17.067-42.667 17.067-59.733 0s-17.067-42.667 0-59.733l140.8-140.8-140.8-140.8c-17.067-17.067-17.067-42.667 0-59.733 8.533-8.533 17.067-12.8 29.867-12.8s21.333 4.267 29.867 12.8l140.8 140.8 140.8-140.8c8.533-8.533 21.333-12.8 29.867-12.8s21.333 4.267 29.867 12.8c17.067 17.067 17.067 42.667 0 59.733l-140.8 140.8 140.8 140.8c17.067 17.067 17.067 42.667 0 59.733z" />
<glyph unicode="&#xe92e;" glyph-name="plus" d="M682.667 482.133h-136.533v136.533c0 21.333-17.067 34.133-34.133 34.133s-34.133-12.8-34.133-34.133v-136.533h-136.533c-21.333 0-34.133-17.067-34.133-34.133s17.067-34.133 34.133-34.133h136.533v-136.533c0-21.333 17.067-34.133 34.133-34.133s34.133 17.067 34.133 34.133v136.533h136.533c21.333 0 34.133 17.067 34.133 34.133s-12.8 34.133-34.133 34.133z" />
<glyph unicode="&#xe92f;" glyph-name="right-arrow" d="M683.52 476.16l-296.96 296.96c-15.36 15.36-38.4 15.36-53.76 0s-15.36-38.4 0-53.76l268.8-271.36-271.36-271.36c-15.36-15.36-15.36-38.4 0-53.76 7.68-7.68 17.92-10.24 28.16-10.24s20.48 2.56 28.16 10.24l299.52 299.52c12.8 12.8 12.8 38.4-2.56 53.76z" />
<glyph unicode="&#xe930;" glyph-name="shop" d="M887.467 704l-115.2 153.6c-8.533 8.533-21.333 17.067-34.133 17.067h-452.267c-17.067 0-25.6-8.533-34.133-17.067l-115.2-153.6c-4.267-8.533-8.533-17.067-8.533-25.6v-537.6c0-29.867 12.8-59.733 34.133-85.333 21.333-21.333 51.2-34.133 85.333-34.133h529.067c29.867 0 64 12.8 85.333 34.133s34.133 51.2 34.133 85.333v537.6c0 8.533-4.267 17.067-8.533 25.6zM307.2 789.333h413.867l64-85.333h-541.867l64 85.333zM802.133 115.2c-4.267-4.267-12.8-8.533-21.333-8.533h-533.333c-8.533 0-17.067 4.267-21.333 8.533-8.533 8.533-12.8 17.067-12.8 25.6v477.867h597.333v-477.867c0-8.533-4.267-17.067-8.533-25.6zM682.667 576c-25.6 0-42.667-17.067-42.667-42.667 0-34.133-12.8-68.267-38.4-89.6-46.933-46.933-132.267-46.933-179.2 0-25.6 21.333-38.4 55.467-38.4 89.6 0 25.6-17.067 42.667-42.667 42.667s-42.667-17.067-42.667-42.667c0-55.467 21.333-110.933 64-149.333 38.4-42.667 93.867-64 149.333-64s110.933 21.333 149.333 64c38.4 38.4 64 93.867 64 149.333 0 25.6-17.067 42.667-42.667 42.667z" />
<glyph unicode="&#xe931;" glyph-name="success" d="M512 921.6c-262.4 0-473.6-211.2-473.6-473.6s211.2-473.6 473.6-473.6c262.4 0 473.6 211.2 473.6 473.6s-211.2 473.6-473.6 473.6zM512 70.4c-211.2 0-377.6 172.8-377.6 377.6s166.4 377.6 377.6 377.6c211.2 0 377.6-172.8 377.6-377.6s-166.4-377.6-377.6-377.6zM672 608l-230.4-224-89.6 89.6c-19.2 19.2-51.2 19.2-70.4 0-12.8-25.6-12.8-51.2 6.4-70.4l121.6-115.2c6.4-6.4 19.2-12.8 32-12.8s25.6 6.4 32 12.8l262.4 256c19.2 19.2 19.2 51.2 0 70.4-12.8 12.8-44.8 12.8-64-6.4z" />
<glyph unicode="&#xe932;" glyph-name="tiktok" d="M663.74 960c16.418-145.31 95.232-231.944 232.26-241.16v-163.436c-79.411-7.987-148.971 18.74-229.871 69.122v-305.674c0-388.314-411.381-509.662-576.769-231.33-106.278 179.106-41.198 493.381 299.729 505.976v-172.344c-25.972-4.301-53.736-11.059-79.112-19.968-75.828-26.419-118.816-75.883-106.875-163.127 22.988-167.125 320.926-216.585 296.145 109.978v611.657h164.493v0.307z" />
<glyph unicode="&#xe933;" d="M1024 448c0-282.77-229.23-512-512-512s-512 229.23-512 512c0 282.77 229.23 512 512 512s512-229.23 512-512z" />
<glyph unicode="&#xe934;" d="M613.158 789.333c10.948-96.873 63.488-154.629 154.842-160.773v-108.957c-52.941-5.325-99.311 12.493-153.25 46.081v-203.782c0-258.876-274.252-339.776-384.51-154.219-70.852 119.398-27.465 328.918 199.819 337.315v-114.897c-17.315-2.867-35.824-7.373-52.741-13.312-50.552-17.613-79.211-50.586-71.25-108.753 15.325-111.415 213.95-144.388 197.429 73.323v407.77h109.662v0.205z" />
<glyph unicode="&#xe935;" glyph-name="twitter" d="M1022.037 775.552c-37.76-16.597-78.080-27.904-120.533-33.067 43.264 26.069 76.544 67.157 92.288 116.181-40.576-23.68-85.547-40.917-133.419-50.517-38.229 40.917-92.715 66.517-153.216 66.517-115.925 0-209.92-93.995-209.92-209.792 0-16.64 1.92-32.64 5.419-47.957-174.507 8.235-329.173 92.032-432.683 218.709-18.219-30.805-28.416-66.603-28.416-105.6 0-72.96 37.12-137.088 93.355-174.763-34.432 1.109-66.816 10.581-95.061 26.283v-2.603c0-101.76 72.235-186.624 168.363-205.952-17.621-4.736-36.224-7.296-55.296-7.296-13.397 0-26.24 1.28-39.083 3.669 26.923-83.328 104.32-144.085 196.437-145.792-71.68-56.277-162.517-89.813-260.352-89.813-16.64 0-33.237 0.981-49.92 2.859 93.397-59.477 203.435-94.251 322.432-94.251 386.304 0 597.291 319.829 597.291 596.736 0 8.917 0 17.92-0.64 26.88 41.003 29.397 76.8 66.56 104.96 108.715l-2.005 0.853z" />
<glyph unicode="&#xe936;" d="M1024 448c0-282.77-229.23-512-512-512s-512 229.23-512 512c0 282.77 229.23 512 512 512s512-229.23 512-512z" />
<glyph unicode="&#xe937;" d="M805.338 687.997c-25.536-18.013-53.808-31.789-83.731-40.8-16.061 18.467-37.405 31.555-61.146 37.495-23.744 5.94-48.736 4.446-71.6-4.281s-42.496-24.265-56.243-44.515c-13.744-20.246-20.941-44.23-20.611-68.701v-26.666c-46.864-1.216-93.299 9.178-135.174 30.253-41.875 21.078-77.885 52.182-104.827 90.547 0 0-106.667-240 133.332-346.665-54.918-37.28-120.341-55.974-186.666-53.334 240-133.334 533.334 0 533.334 306.666-0.026 7.427-0.739 14.838-2.134 22.134 27.216 26.838 46.422 60.727 55.466 97.866z" />
<glyph unicode="&#xe938;" glyph-name="twitter-outline" d="M1006.933 866.133c-12.8 8.533-34.133 8.533-46.933 0-29.867-21.333-64-38.4-98.133-51.2-29.867 25.6-64 42.667-98.133 51.2-46.933 12.8-93.867 8.533-140.8-8.533s-81.067-46.933-110.933-85.333c-25.6-38.4-42.667-85.333-38.4-132.267-55.467 4.267-106.667 17.067-153.6 42.667-64 29.867-119.467 76.8-157.867 132.267-8.533 12.8-21.333 17.067-38.4 17.067s-29.867-12.8-34.133-25.6c-4.267-4.267-46.933-106.667-42.667-230.4 4.267-106.667 46.933-243.2 204.8-341.333-64-29.867-136.533-42.667-209.067-42.667-17.067 0-38.4-12.8-42.667-29.867s4.267-38.4 21.333-46.933c106.667-59.733 221.867-89.6 328.533-89.6s209.067 25.6 302.933 81.067c183.467 102.4 285.867 298.667 285.867 533.333 0 8.533 0 12.8 0 21.333 42.667 46.933 72.533 102.4 85.333 162.133 4.267 17.067-4.267 34.133-17.067 42.667zM861.867 704c-8.533-8.533-12.8-25.6-12.8-38.4 4.267-8.533 4.267-17.067 4.267-25.6 0-204.8-89.6-371.2-243.2-460.8-119.467-68.267-260.267-85.333-401.067-51.2 55.467 17.067 106.667 38.4 153.6 72.533 17.067 8.533 21.333 21.333 21.333 38.4s-12.8 29.867-25.6 34.133c-247.467 110.933-238.933 320-213.333 430.933 38.4-38.4 81.067-72.533 132.267-98.133 72.533-38.4 153.6-55.467 234.667-51.2 21.333 0 42.667 21.333 42.667 42.667v42.667c0 29.867 8.533 59.733 25.6 85.333s42.667 42.667 68.267 55.467c29.867 12.8 59.733 12.8 89.6 4.267s55.467-25.6 76.8-46.933c12.8-12.8 29.867-17.067 42.667-12.8 8.533 4.267 21.333 4.267 29.867 8.533-8.533-8.533-17.067-17.067-25.6-29.867z" />
<glyph unicode="&#xe939;" d="M1024 448c0-282.77-229.23-512-512-512s-512 229.23-512 512c0 282.77 229.23 512 512 512s512-229.23 512-512z" />
<glyph unicode="&#xe93a;" d="M418.133 192c-68.267 0-136.533 17.067-200.533 51.2-12.8 4.267-17.067 17.067-12.8 29.867s12.8 21.333 25.6 21.333c42.667 0 85.333 8.533 123.733 25.6-192 119.467-98.133 341.333-98.133 345.6 4.267 8.533 12.8 12.8 21.333 17.067 8.533 0 17.067-4.267 25.6-12.8 21.333-34.133 55.467-59.733 89.6-76.8 29.867-12.8 59.733-21.333 89.6-25.6 0 29.867 8.533 55.467 25.6 81.067s38.4 42.667 68.267 51.2c25.6 8.533 55.467 12.8 85.333 4.267 21.333-4.267 42.667-17.067 59.733-29.867 21.333 8.533 38.4 17.067 59.733 29.867 8.533 4.267 21.333 8.533 29.867 0 8.533-4.267 12.8-17.067 12.8-29.867-12.8-38.4-29.867-72.533-55.467-98.133 0-4.267 0-8.533 0-12.8 0-140.8-64-260.267-170.667-320-55.467-34.133-115.2-51.2-179.2-51.2zM337.067 256c81.067-21.333 166.4-8.533 234.667 29.867 93.867 55.467 145.067 153.6 145.067 277.333 0 4.267 0 12.8 0 17.067 0 8.533 0 17.067 8.533 25.6 0 4.267 4.267 8.533 8.533 12.8-4.267 0-8.533-4.267-12.8-4.267-8.533-4.267-21.333 0-25.6 8.533-12.8 12.8-25.6 21.333-46.933 25.6-17.067 4.267-34.133 4.267-51.2-4.267s-29.867-17.067-42.667-34.133c-8.533-17.067-17.067-34.133-17.067-51.2v-25.6c0-12.8-12.8-25.6-25.6-25.6-51.2 0-98.133 8.533-140.8 29.867-29.867 17.067-55.467 38.4-76.8 59.733-12.8-64-21.333-187.733 128-256 8.533-4.267 12.8-12.8 17.067-21.333 0-8.533-4.267-17.067-12.8-25.6-29.867-17.067-59.733-29.867-89.6-38.4z" />
<glyph unicode="&#xe93b;" glyph-name="up" d="M857.6 364.8l-300.8 300.8c-25.6 25.6-64 25.6-89.6 0l-300.8-300.8c-25.6-25.6-25.6-64 0-89.6 12.8-12.8 32-19.2 44.8-19.2s32 6.4 44.8 19.2l256 256 256-256c25.6-25.6 64-25.6 89.6 0s25.6 64 0 89.6z" />
<glyph unicode="&#xe93c;" glyph-name="user" d="M870.4 290.133c-42.667 46.933-102.4 72.533-166.4 72.533h-384c-64 0-123.733-25.6-166.4-72.533s-68.267-106.667-68.267-170.667v-98.133c0-25.6 17.067-42.667 42.667-42.667s42.667 17.067 42.667 42.667v98.133c0 42.667 17.067 81.067 42.667 110.933 29.867 29.867 68.267 46.933 106.667 46.933h384c38.4 0 76.8-17.067 106.667-46.933s42.667-68.267 42.667-110.933v-98.133c0-25.6 17.067-42.667 42.667-42.667s42.667 17.067 42.667 42.667v98.133c0 64-25.6 128-68.267 170.667zM512 448c119.467 0 213.333 93.867 213.333 213.333s-93.867 213.333-213.333 213.333-213.333-93.867-213.333-213.333 93.867-213.333 213.333-213.333zM512 789.333c72.533 0 128-55.467 128-128s-55.467-128-128-128-128 55.467-128 128 55.467 128 128 128z" />
<glyph unicode="&#xe93d;" d="M1024 448c0-282.77-229.23-512-512-512s-512 229.23-512 512c0 282.77 229.23 512 512 512s512-229.23 512-512z" />
<glyph unicode="&#xe93e;" d="M652.8 390.4v0c-6.4 3.2-44.8 19.2-51.2 22.4s-12.8 3.2-16-3.2c-6.4-6.4-19.2-25.6-25.6-28.8-3.2-6.4-9.6-6.4-16-3.2s-32 12.8-60.8 38.4c-22.4 19.2-38.4 44.8-41.6 54.4-3.2 6.4 0 12.8 3.2 16s6.4 9.6 12.8 12.8c3.2 3.2 6.4 6.4 6.4 12.8 3.2 6.4 0 9.6 0 12.8-3.2 3.2-16 41.6-22.4 57.6s-12.8 12.8-16 12.8c-3.2 0-9.6 0-16 0s-12.8-3.2-19.2-9.6c-6.4-6.4-25.6-25.6-25.6-64s28.8-73.6 32-80c3.2-6.4 54.4-83.2 131.2-115.2 19.2-6.4 32-12.8 44.8-16 19.2-6.4 35.2-6.4 48-3.2 16 3.2 44.8 19.2 51.2 35.2 6.4 19.2 6.4 32 3.2 35.2-9.6 6.4-16 6.4-22.4 12.8z" />
<glyph unicode="&#xe93f;" d="M729.6 665.6v0c-57.6 57.6-134.4 89.6-217.6 89.6-169.6 0-307.2-137.6-307.2-304 0-54.4 12.8-105.6 41.6-153.6l-44.8-156.8 163.2 41.6c44.8-25.6 96-38.4 147.2-38.4v0c169.6 0 307.2 137.6 307.2 304 0 83.2-32 160-89.6 217.6zM515.2 198.4v0 0c-44.8 0-89.6 12.8-131.2 35.2l-9.6 6.4-96-25.6 25.6 92.8-6.4 9.6c-25.6 41.6-38.4 86.4-38.4 134.4 0 140.8 115.2 252.8 256 252.8 67.2 0 131.2-25.6 179.2-73.6s73.6-112 73.6-179.2c0-137.6-115.2-252.8-252.8-252.8z" />
<glyph unicode="&#xe940;" glyph-name="youtube" d="M1002.458 678.869c-5.935 21.258-17.25 40.626-32.858 56.233-15.603 15.606-34.974 26.922-56.23 32.855-79.787 21.376-400.896 21.376-400.896 21.376s-320.299 0.427-400.896-21.376c-21.258-5.933-40.626-17.249-56.233-32.855s-26.923-34.975-32.856-56.233c-15.124-81.686-22.581-164.608-22.272-247.68-0.25-82.761 7.206-165.363 22.272-246.741 5.933-21.261 17.249-40.627 32.856-56.235 15.606-15.603 34.974-26.923 56.233-32.853 79.701-21.419 400.896-21.419 400.896-21.419s320.256 0 400.896 21.419c21.257 5.931 40.627 17.25 56.23 32.853 15.607 15.607 26.923 34.974 32.858 56.235 14.75 81.408 21.892 164.011 21.333 246.741 0.619 83.042-6.524 165.964-21.333 247.68zM409.988 277.973v306.901l267.264-153.685-267.264-153.216z" />
<glyph unicode="&#xe941;" d="M1024 448c0-282.77-229.23-512-512-512s-512 229.23-512 512c0 282.77 229.23 512 512 512s512-229.23 512-512z" />
<glyph unicode="&#xe942;" d="M797.867 584.533c-4.267 12.8-8.533 25.6-17.067 34.133s-21.333 17.067-34.133 17.067c-46.933 12.8-234.667 12.8-234.667 12.8s-187.733 0-234.667-12.8c-12.8-4.267-21.333-12.8-29.867-21.333-12.8-8.533-17.067-21.333-21.333-29.867-8.533-51.2-12.8-98.133-12.8-145.067s4.267-98.133 12.8-145.067c4.267-12.8 8.533-25.6 17.067-34.133s21.333-17.067 34.133-17.067c46.933-12.8 234.667-12.8 234.667-12.8s187.733 0 234.667 12.8c12.8 4.267 25.6 8.533 34.133 17.067s17.067 21.333 17.067 34.133c8.533 46.933 12.8 93.867 12.8 145.067 0 46.933-4.267 93.867-12.8 145.067v0zM452.267 349.867v179.2l157.867-89.6-157.867-89.6z" />
<glyph unicode="&#xe943;" d="M1024 448c0-282.77-229.23-512-512-512s-512 229.23-512 512c0 282.77 229.23 512 512 512s512-229.23 512-512z" />
<glyph unicode="&#xe944;" d="M543.862 626.083c0 2.544 0 5.437 0 8.326 0 55.712 0.131 111.446-0.083 167.158-0.045 12.748 3.696 22.928 15.77 28.212 11.795 5.155 21.498 0.798 30.474-7.571 108.851-101.589 217.834-203.051 326.752-304.574 14.915-13.891 15.021-29.226 0.234-43.008-109.302-101.914-218.646-203.741-327.949-305.654-8.848-8.237-18.611-11.69-29.939-6.534-11.238 5.133-15.341 14.688-15.322 26.874 0.15 55.715 0.064 111.45 0.064 167.162 0 2.931 0 5.888 0 8.733-10.384 0-20.406 0.454-30.342-0.086-40.794-2.157-81.053-7.808-120.65-18.397-77.141-20.64-132.487-67.638-167.767-139.466-5.556-11.322-11.24-22.582-17.266-33.667-5.684-10.419-17.095-15.466-27.716-12.941-11.753 2.803-20.087 12.509-20.108 24.931-0.192 63.565 1.517 127.021 14.296 189.59 9.744 47.667 26.22 92.509 56.243 131.312 36.284 46.893 84.813 75.126 140.116 92.79 53.552 17.104 108.79 23.206 164.605 25.472 2.138 0.086 4.253 0.218 6.39 0.387 0.47 0.045 0.918 0.39 2.198 0.95zM595.043 747.107c0-4.81 0-7.636 0-10.483 0-45.208 0.064-90.417-0.045-135.626-0.042-16.672-10.49-27.046-26.966-27.478-18.378-0.474-36.797-0.624-55.133-1.725-49.085-2.976-97.485-9.878-143.875-27.392-55.475-20.944-98.276-56.294-123.62-111.318-15.663-34.013-23.399-70.163-27.886-107.155-1.453-12.035-2.436-24.134-3.654-36.192 2.479 0.259 3.077 1.123 3.697 1.942 41.605 54.87 97.742 86.643 162.638 104.717 60.624 16.89 122.614 21.632 185.142 22.086 19.507 0.15 29.638-10.010 29.658-29.613 0.022-44.672 0-89.341 0-134.010 0-2.739 0-5.456 0-9.92 90.797 84.637 179.994 167.741 269.421 251.104-89.878 83.795-178.88 166.749-269.376 251.062z" />
<glyph unicode="&#xe945;" glyph-name="arrow-high" d="M725.333 273.067l-324.267 4.267 358.4 349.867c17.067 17.067 17.067 42.667 0 59.733s-42.667 17.067-59.733 0l-358.4-345.6 4.267 320c0 25.6-17.067 42.667-42.667 42.667 0 0 0 0 0 0-21.333 0-42.667-17.067-42.667-42.667l-4.267-426.667c0 0 0 0 0 0 0-4.267 0-12.8 4.267-17.067 0-4.267 4.267-8.533 8.533-12.8s8.533-8.533 12.8-8.533c4.267 0 4.267 0 8.533 0s4.267 0 8.533 0l426.667-4.267c0 0 0 0 0 0 21.333 0 42.667 17.067 42.667 42.667-4.267 21.333-21.333 38.4-42.667 38.4z" />
<glyph unicode="&#xe946;" glyph-name="arrow-low" d="M763.733 678.4c-4.267 8.533-12.8 17.067-21.333 21.333-4.267 4.267-12.8 4.267-17.067 4.267h-426.667c-25.6 0-42.667-17.067-42.667-42.667s17.067-42.667 42.667-42.667h324.267l-354.133-354.133c-17.067-17.067-17.067-42.667 0-59.733 8.533-8.533 17.067-12.8 29.867-12.8s21.333 4.267 29.867 12.8l354.133 354.133v-324.267c0-25.6 17.067-42.667 42.667-42.667s42.667 17.067 42.667 42.667v426.667c0 4.267 0 12.8-4.267 17.067z" />
<glyph unicode="&#xe947;" glyph-name="tick" d="M883.2 733.867c-17.067 17.067-42.667 17.067-59.733 0l-439.467-439.467-183.467 183.467c-17.067 17.067-42.667 17.067-59.733 0s-17.067-42.667 0-59.733l213.333-213.333c8.533-8.533 17.067-12.8 29.867-12.8s21.333 4.267 29.867 12.8l469.333 469.333c17.067 17.067 17.067 42.667 0 59.733z" />
<glyph unicode="&#xe948;" glyph-name="view" d="M1019.733 465.067c-8.533 17.067-187.733 366.933-507.733 366.933s-499.2-349.867-507.733-366.933c-4.267-12.8-4.267-25.6 0-38.4 8.533-12.8 187.733-362.667 507.733-362.667s499.2 349.867 507.733 366.933c4.267 8.533 4.267 25.6 0 34.133zM512 149.333c-230.4 0-379.733 230.4-422.4 298.667 38.4 68.267 192 298.667 422.4 298.667s379.733-230.4 422.4-298.667c-42.667-68.267-192-298.667-422.4-298.667zM512 618.667c-93.867 0-170.667-76.8-170.667-170.667s76.8-170.667 170.667-170.667c93.867 0 170.667 76.8 170.667 170.667s-76.8 170.667-170.667 170.667zM512 362.667c-46.933 0-85.333 38.4-85.333 85.333s38.4 85.333 85.333 85.333c46.933 0 85.333-38.4 85.333-85.333s-38.4-85.333-85.333-85.333z" />
</font>
</defs>
</svg>
